# xmcd CD database file
#
# Track frame offsets:
#	150
#	20180
#	36337
#	58607
#	73742
#	93682
#	113202
#	134142
#	154077
#	170137
#
# Disc length: 2462 seconds
#
# Revision: 3
# Processed by: cddbd v1.5.2PL0 Copyright (c) Steve Scherf et al.
# Submitted via: CDex 1.70beta2
#
DISCID=9b099c0a
DTITLE=Yukihiro Takahashi - Tomorrow's just another day
DYEAR=1992
DGENRE=Rock
TTITLE0=Ripple
TTITLE1=My bright tomorrow
TTITLE2=Kagerou
TTITLE3=Rokugatsu no Tenshi
TTITLE4=Maebure
TTITLE5=Coincidence
TTITLE6=This island Earth
TTITLE7=Are you receiving me? (Remix)
TTITLE8=Good time
TTITLE9=The April fools
EXTD=YEAR: 1992
EXTT0=
EXTT1=
EXTT2=
EXTT3=
EXTT4=
EXTT5=
EXTT6=
EXTT7=
EXTT8=
EXTT9=
PLAYORDER=
